<svg xmlns="http://www.w3.org/2000/svg" width="800" height="800" viewBox="0 0 800 800">
  <g stroke="#EFEDE6" stroke-opacity="0.3" stroke-width="3.6" fill="none" stroke-linecap="round" stroke-linejoin="round">
<g transform="translate(71,87) rotate(-7) scale(0.576)">
    <ellipse cx="-19" cy="21" rx="7.5" ry="5.5" transform="rotate(-15 -19 21)" fill="#EFEDE6" fill-opacity="0.3"/>
    <ellipse cx="12" cy="26" rx="7.5" ry="5.5" transform="rotate(-15 12 26)" fill="#EFEDE6" fill-opacity="0.3"/>
    <line x1="-12" y1="19" x2="-12" y2="-22"/>
    <line x1="19" y1="24" x2="19" y2="-16"/>
    <line x1="-12" y1="-22" x2="19" y2="-16"/>
    <line x1="-12" y1="-15" x2="19" y2="-9"/>
    </g>
<g transform="translate(237,78) rotate(-9) scale(0.648)">
    <path d="M -18 38 L 0 -42 L 18 38 Z"/>
    <line x1="-12" y1="12" x2="12" y2="12"/>
    <line x1="-6" y1="-9" x2="6" y2="-9"/>
    <line x1="-18" y1="38" x2="18" y2="38"/>
    <path d="M -7 -46 A 14 14 0 0 0 -19 -34"/>
    <path d="M 7 -46 A 14 14 0 0 1 19 -34"/>
    </g>
<g transform="translate(401,85) rotate(9) scale(0.485)">
    <circle cx="0" cy="0" r="78"/>
    <path d="M -16 -64 A 20 20 0 0 0 -36 -50"/>
    <path d="M 16 -64 A 20 20 0 0 1 36 -50"/>
    <g stroke-width="4.2"><g transform="translate(-54,0)"><path d="M -8 -16 L -8 16 M -8 -16 L 8 -16 M -8 -1 L 5 -1"/></g><g transform="translate(-18,0)"><path d="M -8 16 L -8 -16 L 4 -16 A 7 7 0 0 1 4 -2 L -8 -2 M -2 -2 L 9 16"/></g><g transform="translate(18,0)"><path d="M 8 -11 A 14 14 0 1 0 8 11"/></g><g transform="translate(54,0)"><path d="M -8 16 L -8 -16 M 8 16 L 8 -16 M -8 -16 L 8 16"/></g></g>
    <circle cx="0" cy="38" r="2.6" fill="#EFEDE6" fill-opacity="0.3"/>
    </g>
<g transform="translate(567,78) rotate(0) scale(0.62)">
    <path d="M -30 3 A 30 30 0 0 1 30 3"/>
    <line x1="-30" y1="3" x2="-30" y2="12"/>
    <line x1="30" y1="3" x2="30" y2="12"/>
    <rect x="-40" y="5" width="15" height="26" rx="7"/>
    <rect x="25" y="5" width="15" height="26" rx="7"/>
    </g>
<g transform="translate(713,85) rotate(-1) scale(0.611)">
    <path d="M -34 0 Q -26 -22 -18 0 T -2 0 T 14 0 T 30 0"/>
    <path d="M -34 0 Q -26 18 -18 0" opacity="0"/>
    </g>
<g transform="translate(88,233) rotate(-1) scale(0.602)">
    <rect x="-23" y="-23" width="46" height="46" rx="9"/>
    <path d="M -7 -12 L -7 12 L 12 0 Z" fill="#EFEDE6" fill-opacity="0.3"/>
    </g>
<g transform="translate(238,247) rotate(0) scale(0.573)">
    <rect x="-12" y="-40" width="24" height="44" rx="12"/>
    <line x1="-7" y1="-28" x2="7" y2="-28"/>
    <line x1="-7" y1="-18" x2="7" y2="-18"/>
    <path d="M -20 2 A 20 20 0 0 0 20 2"/>
    <line x1="0" y1="22" x2="0" y2="38"/>
    <line x1="-14" y1="38" x2="14" y2="38"/>
    </g>
<g transform="translate(409,234) rotate(3) scale(0.581)">
    <circle cx="0" cy="0" r="32"/>
    <ellipse cx="0" cy="0" rx="12" ry="32"/>
    <line x1="-32" y1="0" x2="32" y2="0"/>
    <path d="M -28 -16 Q 0 -7 28 -16"/>
    <path d="M -28 16 Q 0 7 28 16"/>
    </g>
<g transform="translate(560,243) rotate(-7) scale(0.665)">
    <path d="M -18 38 L 0 -42 L 18 38 Z"/>
    <line x1="-12" y1="12" x2="12" y2="12"/>
    <line x1="-6" y1="-9" x2="6" y2="-9"/>
    <line x1="-18" y1="38" x2="18" y2="38"/>
    <path d="M -7 -46 A 14 14 0 0 0 -19 -34"/>
    <path d="M 7 -46 A 14 14 0 0 1 19 -34"/>
    </g>
<g transform="translate(711,237) rotate(-3) scale(0.662)">
    <rect x="-32" y="-23" width="64" height="41" rx="16"/>
    <path d="M -14 18 L -23 32 L -4 18 Z"/>
    <circle cx="-14" cy="-2" r="2.8" fill="#EFEDE6" fill-opacity="0.3"/>
    <circle cx="0" cy="-2" r="2.8" fill="#EFEDE6" fill-opacity="0.3"/>
    <circle cx="14" cy="-2" r="2.8" fill="#EFEDE6" fill-opacity="0.3"/>
    </g>
<g transform="translate(72,406) rotate(3) scale(0.668)">
    <rect x="-40" y="-22" width="80" height="44" rx="6"/>
    <circle cx="-18" cy="0" r="10"/>
    <line x1="-18" y1="0" x2="-11" y2="-6"/>
    <circle cx="18" cy="0" r="13"/>
    <circle cx="18" cy="0" r="3" fill="#EFEDE6" fill-opacity="0.3"/>
    <path d="M 26 -22 L 44 -42"/>
    <path d="M 44 -42 L 50 -37"/>
    <line x1="-32" y1="22" x2="-32" y2="27"/>
    <line x1="32" y1="22" x2="32" y2="27"/>
    </g>
<g transform="translate(243,404) rotate(-7) scale(0.627)"><rect x="-30" y="-4" width="8" height="24" rx="3"/><rect x="-17" y="-20" width="8" height="40" rx="3"/><rect x="-4" y="4" width="8" height="16" rx="3"/><rect x="9" y="-14" width="8" height="34" rx="3"/><rect x="22" y="-6" width="8" height="26" rx="3"/></g>
<g transform="translate(397,399) rotate(1) scale(0.579)">
    <circle cx="0" cy="0" r="28"/>
    <line x1="0" y1="0" x2="0" y2="-15"/>
    <line x1="0" y1="0" x2="12" y2="5"/>
    <line x1="0" y1="-28" x2="0" y2="-23"/>
    <line x1="0" y1="28" x2="0" y2="23"/>
    <line x1="-28" y1="0" x2="-23" y2="0"/>
    <line x1="28" y1="0" x2="23" y2="0"/>
    </g>
<g transform="translate(561,391) rotate(4) scale(0.646)">
    <circle cx="0" cy="0" r="32"/>
    <circle cx="0" cy="0" r="19"/>
    <circle cx="0" cy="0" r="4" fill="#EFEDE6" fill-opacity="0.3"/>
    <path d="M -32 -9 A 32 32 0 0 1 -9 -32"/>
    </g>
<g transform="translate(714,395) rotate(-2) scale(0.641)">
    <path d="M -19 12 C -19 -14 19 -14 19 12 L 23 19 L -23 19 Z"/>
    <line x1="-23" y1="19" x2="23" y2="19"/>
    <path d="M -4 24 A 4 4 0 0 0 4 24"/>
    <path d="M 26 -5 Q 33 -2 31 5"/>
    <path d="M -26 -5 Q -33 -2 -31 5"/>
    </g>
<g transform="translate(71,552) rotate(5) scale(0.649)">
    <path d="M -24 12 A 34 34 0 0 1 24 12"/>
    <path d="M -15 12 A 24 24 0 0 1 15 12"/>
    <path d="M -7 12 A 12 12 0 0 1 7 12"/>
    <circle cx="0" cy="15" r="2.6" fill="#EFEDE6" fill-opacity="0.3"/>
    </g>
<g transform="translate(236,568) rotate(-3) scale(0.456)">
    <circle cx="0" cy="0" r="78"/>
    <path d="M -16 -64 A 20 20 0 0 0 -36 -50"/>
    <path d="M 16 -64 A 20 20 0 0 1 36 -50"/>
    <g stroke-width="4.2"><g transform="translate(-54,0)"><path d="M -8 -16 L -8 16 M -8 -16 L 8 -16 M -8 -1 L 5 -1"/></g><g transform="translate(-18,0)"><path d="M -8 16 L -8 -16 L 4 -16 A 7 7 0 0 1 4 -2 L -8 -2 M -2 -2 L 9 16"/></g><g transform="translate(18,0)"><path d="M 8 -11 A 14 14 0 1 0 8 11"/></g><g transform="translate(54,0)"><path d="M -8 16 L -8 -16 M 8 16 L 8 -16 M -8 -16 L 8 16"/></g></g>
    <circle cx="0" cy="38" r="2.6" fill="#EFEDE6" fill-opacity="0.3"/>
    </g>
<g transform="translate(397,555) rotate(4) scale(0.634)">
    <ellipse cx="-4" cy="20" rx="8" ry="6" transform="rotate(-18 -4 20)" fill="#EFEDE6" fill-opacity="0.3"/>
    <line x1="4" y1="18" x2="4" y2="-28"/>
    <path d="M 4 -28 C 15 -25 16 -14 7 -9"/>
    </g>
<g transform="translate(554,563) rotate(4) scale(0.669)">
    <path d="M -30 -9 L -2 -23 L -2 23 L -30 9 Z"/>
    <rect x="-39" y="-5" width="9" height="10" rx="3"/>
    <path d="M 5 -12 Q 16 -5 5 2"/>
    <path d="M 12 -19 Q 28 -5 12 9"/>
    </g>
<g transform="translate(711,559) rotate(9) scale(0.601)">
    <line x1="-26" y1="24" x2="14" y2="-22"/>
    <ellipse cx="20" cy="-28" rx="11" ry="15" transform="rotate(35 20 -28)"/>
    <line x1="14" y1="-32" x2="26" y2="-22" transform="rotate(35 20 -28)"/>
    <line x1="-26" y1="24" x2="-34" y2="24"/>
    </g>
<g transform="translate(71,717) rotate(-4) scale(0.61)">
    <path d="M -24 5 Q 0 -19 24 5"/>
    <line x1="0" y1="-19" x2="-5" y2="-30"/>
    <circle cx="-5" cy="-30" r="3.4" fill="#EFEDE6" fill-opacity="0.3"/>
    <path d="M -13 -32 A 9 9 0 0 1 -3 -40"/>
    <path d="M -18 -38 A 15 15 0 0 1 -2 -48"/>
    <line x1="0" y1="5" x2="0" y2="26"/>
    <line x1="-9" y1="26" x2="9" y2="26"/>
    </g>
<g transform="translate(249,714) rotate(-8) scale(0.669)">
    <rect x="-12" y="-40" width="24" height="44" rx="12"/>
    <line x1="-7" y1="-28" x2="7" y2="-28"/>
    <line x1="-7" y1="-18" x2="7" y2="-18"/>
    <path d="M -20 2 A 20 20 0 0 0 20 2"/>
    <line x1="0" y1="22" x2="0" y2="38"/>
    <line x1="-14" y1="38" x2="14" y2="38"/>
    </g>
<g transform="translate(397,725) rotate(-1) scale(0.571)">
    <path d="M -30 3 A 30 30 0 0 1 30 3"/>
    <line x1="-30" y1="3" x2="-30" y2="12"/>
    <line x1="30" y1="3" x2="30" y2="12"/>
    <rect x="-40" y="5" width="15" height="26" rx="7"/>
    <rect x="25" y="5" width="15" height="26" rx="7"/>
    </g>
<g transform="translate(561,720) rotate(3) scale(0.578)">
    <circle cx="0" cy="0" r="14"/>
    <line x1="0" y1="-22" x2="0" y2="-30"/>
    <line x1="0" y1="22" x2="0" y2="30"/>
    <line x1="-22" y1="0" x2="-30" y2="0"/>
    <line x1="22" y1="0" x2="30" y2="0"/>
    <line x1="-15" y1="-15" x2="-21" y2="-21"/>
    <line x1="15" y1="-15" x2="21" y2="-21"/>
    <line x1="-15" y1="15" x2="-21" y2="21"/>
    <line x1="15" y1="15" x2="21" y2="21"/>
    </g>
<g transform="translate(713,717) rotate(9) scale(0.634)">
    <rect x="-28" y="-19" width="56" height="38" rx="2"/>
    <line x1="-19" y1="-10" x2="9" y2="-10" stroke-width="4.6"/>
    <line x1="-19" y1="-1" x2="19" y2="-1"/>
    <line x1="-19" y1="6" x2="19" y2="6"/>
    <line x1="-19" y1="13" x2="9" y2="13"/>
    </g>
<g transform="translate(146,165) rotate(-2) scale(0.66)"><path d="M 0 14 C -18 -2 -16 -19 0 -7 C 16 -19 18 -2 0 14 Z"/></g>
<g transform="translate(320,150) rotate(12) scale(0.7)"><path d="M 0.0 -14.0 L -3.5 -4.9 L -13.3 -4.3 L -5.7 1.9 L -8.2 11.3 L -0.0 6.0 L 8.2 11.3 L 5.7 1.9 L 13.3 -4.3 L 3.5 -4.9 Z"/></g>
<g transform="translate(484,150) rotate(-1) scale(0.6)">
    <circle cx="-9" cy="0" r="2.8" fill="#EFEDE6" fill-opacity="0.3"/>
    <circle cx="0" cy="0" r="2.8" fill="#EFEDE6" fill-opacity="0.3"/>
    <circle cx="9" cy="0" r="2.8" fill="#EFEDE6" fill-opacity="0.3"/>
    </g>
<g transform="translate(630,155) rotate(-11) scale(0.8)">
    <ellipse cx="-2" cy="9" rx="5.4" ry="4" transform="rotate(-18 -2 9)" fill="#EFEDE6" fill-opacity="0.3"/>
    <line x1="3" y1="8" x2="3" y2="-12"/>
    <path d="M 3 -12 C 10 -10 11 -4 5 -1"/>
    </g>
<g transform="translate(153,329) rotate(-13) scale(0.6)"><rect x="-10" y="2" width="5" height="6" rx="2"/><rect x="-2" y="-4" width="5" height="12" rx="2"/><rect x="5" y="0" width="5" height="8" rx="2"/></g>
<g transform="translate(326,323) rotate(-13) scale(0.76)"><path d="M -5 -8 L -5 8 L 8 0 Z"/></g>
<g transform="translate(478,334) rotate(5) scale(0.73)"><path d="M 0 14 C -18 -2 -16 -19 0 -7 C 16 -19 18 -2 0 14 Z"/></g>
<g transform="translate(639,307) rotate(-19) scale(0.58)"><path d="M 0.0 -14.0 L -3.5 -4.9 L -13.3 -4.3 L -5.7 1.9 L -8.2 11.3 L -0.0 6.0 L 8.2 11.3 L 5.7 1.9 L 13.3 -4.3 L 3.5 -4.9 Z"/></g>
<g transform="translate(162,474) rotate(-10) scale(0.77)">
    <circle cx="-9" cy="0" r="2.8" fill="#EFEDE6" fill-opacity="0.3"/>
    <circle cx="0" cy="0" r="2.8" fill="#EFEDE6" fill-opacity="0.3"/>
    <circle cx="9" cy="0" r="2.8" fill="#EFEDE6" fill-opacity="0.3"/>
    </g>
<g transform="translate(318,474) rotate(1) scale(0.8)">
    <ellipse cx="-2" cy="9" rx="5.4" ry="4" transform="rotate(-18 -2 9)" fill="#EFEDE6" fill-opacity="0.3"/>
    <line x1="3" y1="8" x2="3" y2="-12"/>
    <path d="M 3 -12 C 10 -10 11 -4 5 -1"/>
    </g>
<g transform="translate(485,481) rotate(-7) scale(0.71)"><rect x="-10" y="2" width="5" height="6" rx="2"/><rect x="-2" y="-4" width="5" height="12" rx="2"/><rect x="5" y="0" width="5" height="8" rx="2"/></g>
<g transform="translate(649,468) rotate(-17) scale(0.62)"><path d="M -5 -8 L -5 8 L 8 0 Z"/></g>
<g transform="translate(163,646) rotate(14) scale(0.73)"><path d="M 0 14 C -18 -2 -16 -19 0 -7 C 16 -19 18 -2 0 14 Z"/></g>
<g transform="translate(314,632) rotate(-12) scale(0.77)"><path d="M 0.0 -14.0 L -3.5 -4.9 L -13.3 -4.3 L -5.7 1.9 L -8.2 11.3 L -0.0 6.0 L 8.2 11.3 L 5.7 1.9 L 13.3 -4.3 L 3.5 -4.9 Z"/></g>
<g transform="translate(468,634) rotate(1) scale(0.68)">
    <circle cx="-9" cy="0" r="2.8" fill="#EFEDE6" fill-opacity="0.3"/>
    <circle cx="0" cy="0" r="2.8" fill="#EFEDE6" fill-opacity="0.3"/>
    <circle cx="9" cy="0" r="2.8" fill="#EFEDE6" fill-opacity="0.3"/>
    </g>
<g transform="translate(627,627) rotate(-14) scale(0.63)">
    <ellipse cx="-2" cy="9" rx="5.4" ry="4" transform="rotate(-18 -2 9)" fill="#EFEDE6" fill-opacity="0.3"/>
    <line x1="3" y1="8" x2="3" y2="-12"/>
    <path d="M 3 -12 C 10 -10 11 -4 5 -1"/>
    </g>
  </g>
</svg>